Coordinates
version=1
nRows=9
nColumns=24
inDegrees=yes

Units are S.I. units (second, meters, Newtons, ...)
Angles are in degrees.

endheader
time	pelvis_tilt	pelvis_list	pelvis_rotation	pelvis_tx	pelvis_ty	pelvis_tz	hip_flexion_r	hip_adduction_r	hip_rotation_r	knee_angle_r	ankle_angle_r	subtalar_angle_r	mtp_angle_r	hip_flexion_l	hip_adduction_l	hip_rotation_l	knee_angle_l	ankle_angle_l	subtalar_angle_l	mtp_angle_l	lumbar_extension	lumbar_bending	lumbar_rotation
      3.70500000	     -9.96216926	      0.14474396	      5.10102326	     -1.63144880	     -0.02658123	     -0.68677465	     33.25876898	     -3.62855662	    -16.29071926	    -13.12860976	     -5.63911121	     -4.53028383	     10.46621780	     -5.55297561	      1.55787018	    -10.94402700	    -14.23246134	     10.40724602	      6.10906693	      7.74013443	      7.98844717	      0.71886777	    -11.36692064
      3.71000000	    -10.00178184	     -0.04046676	      4.99935322	     -1.62455005	     -0.02721725	     -0.68598297	     33.32305272	     -3.32862725	    -15.73038582	    -13.79048802	     -6.30384671	     -5.52631798	      9.76702826	     -5.51531507	      1.16674687	    -10.99020984	    -15.05450679	     10.06361631	      6.26727319	      7.60245619	      8.17810851	      0.98257452	    -11.38525431
      3.71500000	    -10.04636561	     -0.23207417	      4.78456165	     -1.61762117	     -0.02782233	     -0.68495850	     33.43544195	     -2.95058323	    -15.01639735	    -14.57878885	     -6.64588977	     -6.25594128	      7.23275514	     -5.44268149	      0.74182864	    -11.34188673	    -15.95541935	      9.78071715	      6.66611468	      7.27272950	      8.37370440	      1.26302146	    -11.33058374
      3.72000000	    -10.08133554	     -0.41491282	      4.70963177	     -1.61078870	     -0.02827821	     -0.68415082	     33.50679703	     -2.69290918	    -14.61630085	    -15.24426326	     -7.29549677	     -7.25292501	      6.77425980	     -5.33067497	      0.34470713	    -11.32216505	    -16.88508981	      9.26198038	      6.70928518	      7.16986829	      8.54102258	      1.51714569	    -11.38897848
      3.72500000	    -10.14882186	     -0.69843365	      4.61866870	     -1.60377203	     -0.02862798	     -0.68338838	     33.58352165	     -2.34921039	    -14.35529623	    -15.86742558	     -7.92326616	     -8.14532466	      6.31861775	     -5.15793408	     -0.16029354	    -11.31443585	    -17.85720006	      8.69337221	      6.74926325	      7.06321000	      8.78362498	      1.89215734	    -11.42045665
      3.73000000	    -10.21335403	     -0.85017036	      4.35647247	     -1.59695234	     -0.02898477	     -0.68219298	     33.71848093	     -1.99041416	    -13.66402477	    -16.58117186	     -8.38391655	     -9.23445118	      5.11242421	     -4.94271596	     -0.56898314	    -11.74213282	    -18.93282187	      8.11541592	      7.06494419	      6.93466246	      8.96692533	      2.12837720	    -11.35370854
      3.73500000	    -10.28904527	     -1.10691539	      4.13399685	     -1.59000172	     -0.02918840	     -0.68113876	     33.82641410	     -1.56774088	    -13.18403906	    -17.28367726	     -8.66221533	    -10.08716860	      3.43302698	     -4.67682263	     -1.07687434	    -11.96954182	    -20.05348493	      7.41892607	      7.16991400	      6.85338187	      9.18683029	      2.49321371	    -11.24938767
      3.74000000	    -10.33300581	     -1.31368227	      3.96957905	     -1.58308429	     -0.02925838	     -0.68012057	     33.87354906	     -1.22251731	    -12.77184147	    -17.96248136	     -8.82791833	    -10.94224805	      2.21063295	     -4.38269365	     -1.54605923	    -12.16906894	    -21.24752593	      6.56463916	      7.18542497	      6.83260715	      9.36885814	      2.78399434	    -11.26167614
      3.74500000	    -10.33195218	     -1.51474817	      3.87709086	     -1.57617625	     -0.02913056	     -0.67928625	     33.81507802	     -0.93631584	    -12.52210307	    -18.54931070	     -8.99641773	    -11.71780093	      1.74645012	     -4.07608148	     -1.99867149	    -12.19459834	    -22.50481563	      5.55214050	      7.03717822	      6.73776787	      9.49952047	      3.07715627	    -11.36508936
